0
SECTION
2
HEADER
9
$INSUNITS
70
4
0
ENDSEC
0
SECTION
2
TABLES
0
TABLE
2
LTYPE
0
LTYPE
72
65
70
64
2
CONTINUOUS
3
______
73
0
40
0
0
ENDTAB
0
TABLE
2
LAYER
0
LAYER
2
crease
70
0
62
1
6
CONTINUOUS
0
LAYER
2
cut
70
0
62
7
6
CONTINUOUS
0
ENDTAB
0
ENDSEC
0
SECTION
2
ENTITIES
0
POLYLINE
8
crease
66
1
70
1
0
VERTEX
8
crease
10
0
20
0
0
VERTEX
8
crease
10
0
20
300
0
VERTEX
8
crease
10
400
20
300
0
VERTEX
8
crease
10
400
20
0
0
SEQEND
0
POLYLINE
8
crease
66
1
70
0
0
VERTEX
8
crease
10
700
20
300
0
VERTEX
8
crease
10
1100
20
300
0
VERTEX
8
crease
10
1100
20
0
0
VERTEX
8
crease
10
700
20
0
0
SEQEND
0
POLYLINE
8
crease
66
1
70
0
0
VERTEX
8
crease
10
400
20
300
0
VERTEX
8
crease
10
700
20
300
0
VERTEX
8
crease
10
700
20
0
0
VERTEX
8
crease
10
400
20
0
0
SEQEND
0
POLYLINE
8
cut
66
1
70
1
0
VERTEX
8
cut
10
1400
20
0
0
VERTEX
8
cut
10
1400
20
300
0
VERTEX
8
cut
10
1397
20
300
0
VERTEX
8
cut
10
1397
20
450
0
VERTEX
8
cut
10
1103
20
450
0
VERTEX
8
cut
10
1103
20
300
0
VERTEX
8
cut
10
1100
20
300
0
VERTEX
8
cut
10
1097
20
300
0
VERTEX
8
cut
10
1097
20
450
0
VERTEX
8
cut
10
703
20
450
0
VERTEX
8
cut
10
703
20
300
0
VERTEX
8
cut
10
700
20
300
0
VERTEX
8
cut
10
697
20
300
0
VERTEX
8
cut
10
697
20
450
0
VERTEX
8
cut
10
403
20
450
0
VERTEX
8
cut
10
403
20
300
0
VERTEX
8
cut
10
400
20
300
0
VERTEX
8
cut
10
397
20
300
0
VERTEX
8
cut
10
397
20
450
0
VERTEX
8
cut
10
3
20
450
0
VERTEX
8
cut
10
3
20
300
0
VERTEX
8
cut
10
0
20
300
0
VERTEX
8
cut
10
-40
20
289.5237692
0
VERTEX
8
cut
10
-40
20
10.4762308
0
VERTEX
8
cut
10
0
20
0
0
VERTEX
8
cut
10
3
20
0
0
VERTEX
8
cut
10
3
20
-150
0
VERTEX
8
cut
10
397
20
-150
0
VERTEX
8
cut
10
397
20
0
0
VERTEX
8
cut
10
400
20
0
0
VERTEX
8
cut
10
403
20
0
0
VERTEX
8
cut
10
403
20
-150
0
VERTEX
8
cut
10
697
20
-150
0
VERTEX
8
cut
10
697
20
0
0
VERTEX
8
cut
10
700
20
0
0
VERTEX
8
cut
10
703
20
0
0
VERTEX
8
cut
10
703
20
-150
0
VERTEX
8
cut
10
1097
20
-150
0
VERTEX
8
cut
10
1097
20
0
0
VERTEX
8
cut
10
1100
20
0
0
VERTEX
8
cut
10
1103
20
0
0
VERTEX
8
cut
10
1103
20
-150
0
VERTEX
8
cut
10
1397
20
-150
0
VERTEX
8
cut
10
1397
20
0
0
SEQEND
0
LINE
8
crease
10
1100
20
0
11
1400
21
0
0
LINE
8
crease
10
1400
20
300
11
1100
21
300
0
ENDSEC
0
EOF