0
SECTION
2
HEADER
9
$INSUNITS
70
4
0
ENDSEC
0
SECTION
2
TABLES
0
TABLE
2
LTYPE
0
LTYPE
72
65
70
64
2
CONTINUOUS
3
______
73
0
40
0
0
ENDTAB
0
TABLE
2
LAYER
0
LAYER
2
cut
70
0
62
7
6
CONTINUOUS
0
LAYER
2
crease
70
0
62
1
6
CONTINUOUS
0
ENDTAB
0
ENDSEC
0
SECTION
2
ENTITIES
0
POLYLINE
8
cut
66
1
70
0
0
VERTEX
8
cut
10
492
20
0
0
VERTEX
8
cut
10
496.5
20
4.5
0
VERTEX
8
cut
10
496.5
20
-64
42
0.4142136
0
VERTEX
8
cut
10
506.5
20
-74
0
VERTEX
8
cut
10
861.7927185
20
-74
42
0.3394543
0
VERTEX
8
cut
10
871.4519769
20
-66.5881901
0
VERTEX
8
cut
10
890.5
20
4.5
0
VERTEX
8
cut
10
892
20
4.5
0
VERTEX
8
cut
10
960.5
20
4.5
42
0.4142136
0
VERTEX
8
cut
10
970.5
20
14.5
0
VERTEX
8
cut
10
970.5
20
241.5
42
0.4142136
0
VERTEX
8
cut
10
960.5
20
251.5
0
VERTEX
8
cut
10
892
20
251.5
0
VERTEX
8
cut
10
890.5
20
251.5
0
VERTEX
8
cut
10
871.4519769
20
322.5881901
42
0.3394543
0
VERTEX
8
cut
10
861.7927185
20
330
0
VERTEX
8
cut
10
506.5
20
330
42
0.4142136
0
VERTEX
8
cut
10
496.5
20
320
0
VERTEX
8
cut
10
496.5
20
251.5
0
VERTEX
8
cut
10
492
20
256
0
SEQEND
0
POLYLINE
8
cut
66
1
70
0
0
VERTEX
8
cut
10
406
20
1.5
0
VERTEX
8
cut
10
409
20
0
0
VERTEX
8
cut
10
492
20
0
0
VERTEX
8
cut
10
492
20
-80
0
VERTEX
8
cut
10
-103
20
-80
0
VERTEX
8
cut
10
-103
20
-3
0
VERTEX
8
cut
10
-83
20
0
0
SEQEND
0
POLYLINE
8
cut
66
1
70
0
0
VERTEX
8
cut
10
406
20
254.5
0
VERTEX
8
cut
10
409
20
256
0
VERTEX
8
cut
10
492
20
256
0
VERTEX
8
cut
10
492
20
336
0
VERTEX
8
cut
10
-103
20
336
0
VERTEX
8
cut
10
-103
20
259
0
VERTEX
8
cut
10
-83
20
256
0
SEQEND
0
POLYLINE
8
cut
66
1
70
0
0
VERTEX
8
cut
10
3
20
1.5
0
VERTEX
8
cut
10
0
20
0
0
VERTEX
8
cut
10
-83
20
0
0
VERTEX
8
cut
10
-89
20
3
0
VERTEX
8
cut
10
-170.5
20
3
0
VERTEX
8
cut
10
-170.5
20
83
0
VERTEX
8
cut
10
-175
20
85.5980762
0
VERTEX
8
cut
10
-175
20
100.4019238
0
VERTEX
8
cut
10
-170.5
20
103
0
VERTEX
8
cut
10
-170.5
20
153
0
VERTEX
8
cut
10
-175
20
155.5980762
0
VERTEX
8
cut
10
-175
20
170.4019238
0
VERTEX
8
cut
10
-170.5
20
173
0
VERTEX
8
cut
10
-170.5
20
253
0
VERTEX
8
cut
10
-89
20
253
0
VERTEX
8
cut
10
-83
20
256
0
VERTEX
8
cut
10
0
20
256
0
VERTEX
8
cut
10
3
20
254.5
0
SEQEND
0
POLYLINE
8
cut
66
1
70
1
0
VERTEX
8
cut
10
0
20
83
0
VERTEX
8
cut
10
7.5
20
83
0
VERTEX
8
cut
10
7.5
20
103
0
VERTEX
8
cut
10
0
20
103
0
SEQEND
0
POLYLINE
8
cut
66
1
70
1
0
VERTEX
8
cut
10
0
20
153
0
VERTEX
8
cut
10
7.5
20
153
0
VERTEX
8
cut
10
7.5
20
173
0
VERTEX
8
cut
10
0
20
173
0
SEQEND
0
POLYLINE
8
crease
66
1
70
0
0
VERTEX
8
crease
10
406
20
-80
0
VERTEX
8
crease
10
406
20
1.5
0
VERTEX
8
crease
10
3
20
1.5
0
VERTEX
8
crease
10
3
20
-80
0
SEQEND
0
POLYLINE
8
crease
66
1
70
0
0
VERTEX
8
crease
10
406
20
336
0
VERTEX
8
crease
10
406
20
254.5
0
VERTEX
8
crease
10
3
20
254.5
0
VERTEX
8
crease
10
3
20
336
0
SEQEND
0
LINE
8
crease
10
0
20
0
11
0
21
83
0
LINE
8
crease
10
0
20
103
11
0
21
153
0
LINE
8
crease
10
0
20
256
11
0
21
173
0
LINE
8
crease
10
492
20
0
11
492
21
256
0
LINE
8
crease
10
409
20
0
11
409
21
256
0
LINE
8
crease
10
892
20
4.5
11
892
21
251.5
0
LINE
8
crease
10
496.5
20
4.5
11
890.5
21
4.5
0
LINE
8
crease
10
496.5
20
251.5
11
890.5
21
251.5
0
LINE
8
crease
10
-83
20
0
11
-83
21
256
0
LINE
8
crease
10
-89
20
3
11
-89
21
253
0
ENDSEC
0
EOF