0
SECTION
2
HEADER
9
$INSUNITS
70
4
0
ENDSEC
0
SECTION
2
TABLES
0
TABLE
2
LTYPE
0
LTYPE
72
65
70
64
2
CONTINUOUS
3
______
73
0
40
0
0
ENDTAB
0
TABLE
2
LAYER
0
LAYER
2
crease
70
0
62
1
6
CONTINUOUS
0
LAYER
2
cut
70
0
62
7
6
CONTINUOUS
0
ENDTAB
0
ENDSEC
0
SECTION
2
ENTITIES
0
POLYLINE
8
crease
66
1
70
1
0
VERTEX
8
crease
10
150
20
0
0
VERTEX
8
crease
10
150
20
500
0
VERTEX
8
crease
10
270
20
500
0
VERTEX
8
crease
10
270
20
0
0
SEQEND
0
POLYLINE
8
crease
66
1
70
1
0
VERTEX
8
crease
10
0
20
500
0
VERTEX
8
crease
10
0
20
0
0
VERTEX
8
crease
10
-120
20
0
0
VERTEX
8
crease
10
-120
20
500
0
SEQEND
0
POLYLINE
8
cut
66
1
70
1
0
VERTEX
8
cut
10
0
20
500
0
VERTEX
8
cut
10
150
20
500
0
VERTEX
8
cut
10
156
20
500
0
VERTEX
8
cut
10
156
20
562
0
VERTEX
8
cut
10
166
20
572
0
VERTEX
8
cut
10
254
20
572
0
VERTEX
8
cut
10
264
20
562
0
VERTEX
8
cut
10
264
20
500
0
VERTEX
8
cut
10
270
20
500
0
VERTEX
8
cut
10
270
20
617
0
VERTEX
8
cut
10
273
20
617
0
VERTEX
8
cut
10
273
20
637
0
VERTEX
8
cut
10
278
20
642
0
VERTEX
8
cut
10
412
20
642
0
VERTEX
8
cut
10
417
20
637
0
VERTEX
8
cut
10
417
20
617
0
VERTEX
8
cut
10
420
20
617
0
VERTEX
8
cut
10
420
20
500
0
VERTEX
8
cut
10
420
20
0
0
VERTEX
8
cut
10
420
20
-117
0
VERTEX
8
cut
10
417
20
-117
0
VERTEX
8
cut
10
417
20
-137
0
VERTEX
8
cut
10
412
20
-142
0
VERTEX
8
cut
10
278
20
-142
0
VERTEX
8
cut
10
273
20
-137
0
VERTEX
8
cut
10
273
20
-117
0
VERTEX
8
cut
10
270
20
-117
0
VERTEX
8
cut
10
270
20
0
0
VERTEX
8
cut
10
264
20
0
0
VERTEX
8
cut
10
264
20
-62
0
VERTEX
8
cut
10
254
20
-72
0
VERTEX
8
cut
10
166
20
-72
0
VERTEX
8
cut
10
156
20
-62
0
VERTEX
8
cut
10
156
20
0
0
VERTEX
8
cut
10
150
20
0
0
VERTEX
8
cut
10
0
20
0
0
VERTEX
8
cut
10
-6
20
0
0
VERTEX
8
cut
10
-6
20
-62
0
VERTEX
8
cut
10
-16
20
-72
0
VERTEX
8
cut
10
-104
20
-72
0
VERTEX
8
cut
10
-114
20
-62
0
VERTEX
8
cut
10
-114
20
0
0
VERTEX
8
cut
10
-120
20
0
0
VERTEX
8
cut
10
-160
20
8.7275325
0
VERTEX
8
cut
10
-160
20
491.2724675
0
VERTEX
8
cut
10
-120
20
500
0
VERTEX
8
cut
10
-114
20
500
0
VERTEX
8
cut
10
-114
20
562
0
VERTEX
8
cut
10
-104
20
572
0
VERTEX
8
cut
10
-16
20
572
0
VERTEX
8
cut
10
-6
20
562
0
VERTEX
8
cut
10
-6
20
500
0
SEQEND
0
LINE
8
crease
10
270
20
617
11
420
21
617
0
LINE
8
crease
10
270
20
-117
11
420
21
-117
0
LINE
8
crease
10
270
20
0
11
420
21
0
0
LINE
8
crease
10
420
20
500
11
270
21
500
0
ENDSEC
0
EOF