0
SECTION
2
HEADER
9
$INSUNITS
70
4
0
ENDSEC
0
SECTION
2
TABLES
0
TABLE
2
LTYPE
0
LTYPE
72
65
70
64
2
CONTINUOUS
3
______
73
0
40
0
0
ENDTAB
0
TABLE
2
LAYER
0
LAYER
2
cut
70
0
62
7
6
CONTINUOUS
0
LAYER
2
crease
70
0
62
1
6
CONTINUOUS
0
ENDTAB
0
ENDSEC
0
SECTION
2
ENTITIES
0
POLYLINE
8
cut
66
1
70
0
0
VERTEX
8
cut
10
604
20
306
0
VERTEX
8
cut
10
604
20
386
0
VERTEX
8
cut
10
509
20
386
0
VERTEX
8
cut
10
509
20
392
0
VERTEX
8
cut
10
580.7364819
20
404.6490772
42
0.3639702
0
VERTEX
8
cut
10
589
20
414.4971547
0
VERTEX
8
cut
10
589
20
669.5028453
42
0.3639702
0
VERTEX
8
cut
10
580.7364819
20
679.3509227
0
VERTEX
8
cut
10
509
20
692
0
VERTEX
8
cut
10
509
20
698
0
VERTEX
8
cut
10
518
20
698
0
VERTEX
8
cut
10
592.5483848
20
704.5221385
42
0.4338921
0
VERTEX
8
cut
10
597.0534467
20
710.2699861
42
0.3697994
0
VERTEX
8
cut
10
518
20
778
0
VERTEX
8
cut
10
3
20
778
42
0.3697994
0
VERTEX
8
cut
10
-76.0534467
20
710.2699861
42
0.4338921
0
VERTEX
8
cut
10
-71.5483848
20
704.5221386
0
VERTEX
8
cut
10
3
20
698
0
VERTEX
8
cut
10
12
20
698
0
VERTEX
8
cut
10
12
20
692
0
VERTEX
8
cut
10
-59.7364819
20
679.3509228
42
0.3639702
0
VERTEX
8
cut
10
-68
20
669.5028453
0
VERTEX
8
cut
10
-68
20
414.4971547
42
0.3639702
0
VERTEX
8
cut
10
-59.7364819
20
404.6490773
0
VERTEX
8
cut
10
12
20
392
0
VERTEX
8
cut
10
12
20
386
0
VERTEX
8
cut
10
-83
20
386
0
VERTEX
8
cut
10
-83
20
306
0
SEQEND
0
POLYLINE
8
cut
66
1
70
0
0
VERTEX
8
cut
10
604
20
0
0
VERTEX
8
cut
10
604
20
-80
0
VERTEX
8
cut
10
-83
20
-80
0
VERTEX
8
cut
10
-83
20
0
0
SEQEND
0
POLYLINE
8
cut
66
1
70
0
0
VERTEX
8
cut
10
6
20
1.5
0
VERTEX
8
cut
10
0
20
0
0
VERTEX
8
cut
10
-83
20
0
0
VERTEX
8
cut
10
-92
20
3
0
VERTEX
8
cut
10
-173.5
20
3
0
VERTEX
8
cut
10
-173.5
20
53
0
VERTEX
8
cut
10
-178
20
55.5980762
0
VERTEX
8
cut
10
-178
20
110.4019238
0
VERTEX
8
cut
10
-173.5
20
113
0
VERTEX
8
cut
10
-173.5
20
193
0
VERTEX
8
cut
10
-178
20
195.5980762
0
VERTEX
8
cut
10
-178
20
250.4019238
0
VERTEX
8
cut
10
-173.5
20
253
0
VERTEX
8
cut
10
-173.5
20
303
0
VERTEX
8
cut
10
-92
20
303
0
VERTEX
8
cut
10
-83
20
306
0
VERTEX
8
cut
10
0
20
306
0
VERTEX
8
cut
10
3
20
304.5
0
SEQEND
0
POLYLINE
8
cut
66
1
70
0
0
VERTEX
8
cut
10
515
20
1.5
0
VERTEX
8
cut
10
521
20
0
0
VERTEX
8
cut
10
604
20
0
0
VERTEX
8
cut
10
613
20
3
0
VERTEX
8
cut
10
694.5
20
3
0
VERTEX
8
cut
10
694.5
20
53
0
VERTEX
8
cut
10
699
20
55.5980762
0
VERTEX
8
cut
10
699
20
110.4019238
0
VERTEX
8
cut
10
694.5
20
113
0
VERTEX
8
cut
10
694.5
20
193
0
VERTEX
8
cut
10
699
20
195.5980762
0
VERTEX
8
cut
10
699
20
250.4019238
0
VERTEX
8
cut
10
694.5
20
253
0
VERTEX
8
cut
10
694.5
20
303
0
VERTEX
8
cut
10
613
20
303
0
VERTEX
8
cut
10
604
20
306
0
VERTEX
8
cut
10
521
20
306
0
VERTEX
8
cut
10
518
20
304.5
0
SEQEND
0
POLYLINE
8
cut
66
1
70
1
0
VERTEX
8
cut
10
0
20
53
0
VERTEX
8
cut
10
10.5
20
53
0
VERTEX
8
cut
10
10.5
20
113
0
VERTEX
8
cut
10
0
20
113
0
SEQEND
0
POLYLINE
8
cut
66
1
70
1
0
VERTEX
8
cut
10
510.5
20
53
0
VERTEX
8
cut
10
521
20
53
0
VERTEX
8
cut
10
521
20
113
0
VERTEX
8
cut
10
510.5
20
113
0
SEQEND
0
POLYLINE
8
cut
66
1
70
1
0
VERTEX
8
cut
10
0
20
193
0
VERTEX
8
cut
10
10.5
20
193
0
VERTEX
8
cut
10
10.5
20
253
0
VERTEX
8
cut
10
0
20
253
0
SEQEND
0
POLYLINE
8
cut
66
1
70
1
0
VERTEX
8
cut
10
510.5
20
193
0
VERTEX
8
cut
10
521
20
193
0
VERTEX
8
cut
10
521
20
253
0
VERTEX
8
cut
10
510.5
20
253
0
SEQEND
0
POLYLINE
8
crease
66
1
70
0
0
VERTEX
8
crease
10
518
20
386
0
VERTEX
8
crease
10
518
20
304.5
0
VERTEX
8
crease
10
3
20
304.5
0
VERTEX
8
crease
10
3
20
386
0
SEQEND
0
POLYLINE
8
crease
66
1
70
0
0
VERTEX
8
crease
10
515
20
-80
0
VERTEX
8
crease
10
515
20
1.5
0
VERTEX
8
crease
10
6
20
1.5
0
VERTEX
8
crease
10
6
20
-80
0
SEQEND
0
LINE
8
crease
10
-83
20
0
11
-83
21
306
0
LINE
8
crease
10
-92
20
3
11
-92
21
303
0
LINE
8
crease
10
0
20
0
11
0
21
53
0
LINE
8
crease
10
0
20
113
11
0
21
193
0
LINE
8
crease
10
0
20
306
11
0
21
253
0
LINE
8
crease
10
604
20
0
11
604
21
306
0
LINE
8
crease
10
613
20
3
11
613
21
303
0
LINE
8
crease
10
521
20
0
11
521
21
53
0
LINE
8
crease
10
521
20
113
11
521
21
193
0
LINE
8
crease
10
521
20
306
11
521
21
253
0
LINE
8
crease
10
12
20
392
11
12
21
692
0
LINE
8
crease
10
509
20
392
11
509
21
692
0
LINE
8
crease
10
12
20
387.5
11
509
21
387.5
0
LINE
8
crease
10
12
20
696.5
11
509
21
696.5
0
LINE
8
crease
10
3
20
698
11
3
21
778
0
LINE
8
crease
10
518
20
698
11
518
21
778
0
ENDSEC
0
EOF